# xmcd CD database file
#
# Track frame offsets:
#	150
#	27614
#	61203
#	83299
#	96389
#	112316
#	133879
#	160564
#	173895
#	197078
#	219374
#	242947
#	258439
#	293742
#
# Disc length: 4098 seconds
#
# Revision: 0
# Processed by: cddbd v1.5PL3 Copyright (c) Steve Scherf et al.
# Submitted via: CDex 1.51
#
DISCID=ca10000e
DTITLE=David Bromberg - The Player - A Retrospective
DYEAR=1998
DGENRE=Blues
TTITLE0=Sharon
TTITLE1=Mr Bojangles
TTITLE2=Suffer to Sing the Blues
TTITLE3=Mr. Blue
TTITLE4=The Joke's on Me
TTITLE5=Sammy's Song
TTITLE6=Yankee's Revenge
TTITLE7=Wallflower
TTITLE8=Statesboro Blues/Church Bell Blues
TTITLE9=Nobody's
TTITLE10=The Main Street Moan
TTITLE11=I Like to Sleep Late in the Morning
TTITLE12=Dehlia
TTITLE13=The Holdup
EXTD=YEAR: 1998
EXTT0=
EXTT1=
EXTT2=
EXTT3=
EXTT4=
EXTT5=
EXTT6=
EXTT7=
EXTT8=
EXTT9=
EXTT10=
EXTT11=
EXTT12=
EXTT13=
PLAYORDER=
